<svg width="64" height="64" viewBox="0 0 64 64" fill="none" xmlns="http://www.w3.org/2000/svg">
<path fill-rule="evenodd" clip-rule="evenodd" d="M53 3C57.9706 3 62 7.02944 62 12V40.9111C62 45.8817 57.9774 49.9111 53.0068 49.9111C43.7145 49.9111 30.2547 49.9111 28 49.9111C24.5 49.9111 9.00052 65.5478 12 59.6846C15 53.8207 13.5 49.9111 11 49.9111C6.02944 49.9111 2 45.8817 2 40.9111V12C2 7.02944 6.02944 3 11 3H53ZM17 22C14.2386 22 12 24.2386 12 27C12 29.7614 14.2386 32 17 32C19.7614 32 22 29.7614 22 27C22 24.2386 19.7614 22 17 22ZM32 22C29.2386 22 27 24.2386 27 27C27 29.7614 29.2386 32 32 32C34.7614 32 37 29.7614 37 27C37 24.2386 34.7614 22 32 22ZM47 22C44.2386 22 42 24.2386 42 27C42 29.7614 44.2386 32 47 32C49.7614 32 52 29.7614 52 27C52 24.2386 49.7614 22 47 22Z" fill="white"/>
</svg>
