<svg width="64" height="64" viewBox="0 0 64 64" fill="none" xmlns="http://www.w3.org/2000/svg">
<path d="M31.9823 58.7827L5.69823 32.4986C3.60164 30.402 2.20391 27.9645 1.50505 25.1861C0.823232 22.4077 0.831755 19.6463 1.53062 16.902C2.22948 14.1406 3.61869 11.7372 5.69823 9.69176C7.82891 7.59517 10.2579 6.20596 12.9852 5.52415C15.7295 4.82528 18.4653 4.82528 21.1926 5.52415C23.9369 6.22301 26.3744 7.61222 28.5051 9.69176L31.9823 13.0668L35.4596 9.69176C37.6073 7.61222 40.0448 6.22301 42.7721 5.52415C45.4994 4.82528 48.2266 4.82528 50.9539 5.52415C53.6982 6.20596 56.1357 7.59517 58.2664 9.69176C60.346 11.7372 61.7352 14.1406 62.434 16.902C63.1329 19.6463 63.1329 22.4077 62.434 25.1861C61.7522 27.9645 60.363 30.402 58.2664 32.4986L31.9823 58.7827Z" fill="white"/>
</svg>
