<svg width="512" height="512" viewBox="0 0 512 512" fill="none" xmlns="http://www.w3.org/2000/svg">
<g clip-path="url(#clip0_36_67)">
<path d="M393 0C458.722 0 512 53.2781 512 119V393C512 458.722 458.722 512 393 512H119C53.2781 512 0 458.722 0 393V119C0 53.2781 53.2781 0 119 0H393ZM79.8398 106.56V372.24C86.0798 374.16 93.2804 375.96 101.44 377.64C109.6 379.08 118.12 380.16 127 380.88C136.12 381.84 144.88 382.32 153.28 382.32C172.72 382.32 189.16 378.36 202.6 370.44C216.28 362.28 226.6 350.76 233.56 335.88C240.76 321 244.36 303.48 244.36 283.32C244.36 263.4 241.48 246.12 235.72 231.48C230.2 216.6 221.8 205.08 210.52 196.92C199.48 188.52 185.68 184.32 169.12 184.32C162.64 184.32 156.16 184.92 149.68 186.12C143.2 187.32 136.479 189.6 129.52 192.96V98.2803L79.8398 106.56ZM382.806 183.6C364.086 183.6 347.885 186.24 334.205 191.52C320.525 196.56 309.245 203.64 300.365 212.76C291.485 221.88 284.885 232.56 280.565 244.8C276.245 256.8 274.085 269.64 274.085 283.32C274.085 301.8 277.805 318.6 285.245 333.72C292.925 348.6 304.806 360.48 320.886 369.36C336.966 378 357.966 382.32 383.886 382.32C392.766 382.32 400.925 381.84 408.365 380.88C415.805 380.16 422.525 379.2 428.525 378C434.525 376.56 439.805 375 444.365 373.32L437.165 332.28C430.445 334.68 422.765 336.48 414.125 337.68C405.485 338.64 397.325 339.12 389.646 339.12C374.046 339.12 361.446 336.84 351.846 332.28C342.246 327.72 335.285 321.36 330.965 313.2C326.645 304.8 324.485 294.84 324.485 283.32C324.485 272.28 326.405 262.56 330.245 254.16C334.085 245.76 340.566 239.16 349.686 234.36C359.045 229.32 371.525 226.8 387.125 226.8C397.445 226.8 405.845 227.52 412.325 228.96C419.045 230.4 425.045 232.08 430.325 234L441.125 194.04C431.765 190.2 422.525 187.56 413.405 186.12C404.285 184.44 394.086 183.6 382.806 183.6ZM159.04 227.16C166.96 227.16 173.44 229.32 178.479 233.64C183.759 237.96 187.6 244.2 190 252.36C192.64 260.28 193.96 270.12 193.96 281.88C193.96 302.76 190.24 317.64 182.8 326.52C175.36 335.399 165.16 339.84 152.2 339.84C149.32 339.84 145.72 339.72 141.4 339.48C137.32 339 133.36 338.4 129.52 337.68V234.72C133.119 232.56 137.56 230.76 142.84 229.32C148.36 227.88 153.76 227.16 159.04 227.16Z" fill="#7B34FF"/>
</g>
<defs>
<clipPath id="clip0_36_67">
<rect width="512" height="512" fill="white"/>
</clipPath>
</defs>
</svg>
